<?xml version="1.0" encoding="UTF-8" standalone="no"?>
<!-- Created with Inkscape (http://www.inkscape.org/) -->

<svg
   width="210mm"
   height="297mm"
   viewBox="0 0 210 297"
   version="1.1"
   id="svg5"
   xml:space="preserve"
   inkscape:version="1.2.1 (9c6d41e410, 2022-07-14)"
   sodipodi:docname="FStack.svg"
   inkscape:export-filename="FStack.png"
   inkscape:export-xdpi="96"
   inkscape:export-ydpi="96"
   xmlns:inkscape="http://www.inkscape.org/namespaces/inkscape"
   xmlns:sodipodi="http://sodipodi.sourceforge.net/DTD/sodipodi-0.dtd"
   xmlns="http://www.w3.org/2000/svg"
   xmlns:svg="http://www.w3.org/2000/svg"><sodipodi:namedview
     id="namedview7"
     pagecolor="#ffffff"
     bordercolor="#666666"
     borderopacity="1.0"
     inkscape:showpageshadow="2"
     inkscape:pageopacity="0"
     inkscape:pagecheckerboard="false"
     inkscape:deskcolor="#fbfbfb"
     inkscape:document-units="mm"
     showgrid="false"
     inkscape:zoom="1.7817059"
     inkscape:cx="282.3137"
     inkscape:cy="535.44189"
     inkscape:window-width="1717"
     inkscape:window-height="1371"
     inkscape:window-x="2808"
     inkscape:window-y="121"
     inkscape:window-maximized="0"
     inkscape:current-layer="layer1" /><defs
     id="defs2"><linearGradient
       id="linearGradient1661"
       inkscape:swatch="gradient"><stop
         style="stop-color:#000000;stop-opacity:1;"
         offset="0.34640199"
         id="stop1657" /><stop
         style="stop-color:#000000;stop-opacity:0;"
         offset="1"
         id="stop1659" /></linearGradient></defs><g
     inkscape:label="Layer 1"
     inkscape:groupmode="layer"
     id="layer1"><rect
       style="font-variation-settings:'wght' 700;opacity:1;fill:#ffffff;fill-opacity:1;stroke:#000000;stroke-width:0;stroke-dasharray:none;stroke-opacity:1"
       id="rect15870"
       width="168.21378"
       height="133.58269"
       x="17.040846"
       y="63.135307" /><path
       style="fill:#000000;stroke-width:0.264583"
       d="m 88.32005,178.68205 c -4.62675,-0.18513 -5.551019,-0.42763 -6.834238,-1.7931 -2.435698,-2.5918 0.05317,-6.25791 4.490188,-6.61407 0.933265,-0.0749 1.75476,-0.22992 1.825543,-0.34445 0.07078,-0.11453 0.24455,-3.93774 0.386147,-8.49602 0.141594,-4.55827 0.384151,-11.01601 0.539011,-14.35053 0.352439,-7.58884 0.318839,-7.96719 -0.507166,-5.7112 -0.346324,0.94589 -1.030555,2.51974 -1.520513,3.49745 -0.489955,0.97772 -1.172914,2.52553 -1.517684,3.43959 -0.967899,2.56609 -2.773249,6.08212 -3.53018,6.87523 -1.072824,1.12411 -2.280044,1.60386 -3.098009,1.23117 -0.947123,-0.43153 -2.007057,-2.658 -2.007057,-4.21594 0,-2.9135 1.728017,-12.17831 3.055797,-16.38375 1.405392,-4.45126 2.916293,-6.38099 6.708839,-8.56852 l 2.141614,-1.23528 v -2.23412 c 0,-2.05365 -0.06405,-2.32556 -0.793007,-3.36632 -0.436155,-0.62272 -1.28583,-2.55858 -1.888167,-4.3019 l -1.095161,-3.16968 0.173652,-2.91574 c 0.165494,-2.77876 0.231804,-3.03381 1.411504,-5.42927 1.831719,-3.71942 4.98674,-6.785776 8.094509,-7.867036 1.825285,-0.635052 5.879888,-0.748889 7.731898,-0.21708 1.72354,0.49492 4.39779,1.88697 5.65128,2.94171 1.0973,0.923326 2.03653,3.048096 2.39008,5.406986 0.48135,3.21163 -0.56875,7.79766 -2.47806,10.8222 -0.34169,0.54127 -1.77659,2.06321 -3.18867,3.38211 l -2.56742,2.39798 0.30165,1.45304 c 0.38584,1.85858 0.97875,2.40085 3.53879,3.23653 3.1783,1.0375 4.54446,1.83891 5.76661,3.38277 3.27807,4.14096 5.4577,8.42278 6.0648,11.91413 0.17177,0.98784 0.26863,3.07235 0.21523,4.63227 -0.086,2.51145 -0.18773,3.01774 -0.88881,4.42165 -1.00973,2.02196 -2.08535,2.77827 -3.93973,2.77019 -1.54514,-0.007 -2.24329,-0.44365 -2.95011,-1.8462 -0.62697,-1.24412 -1.36393,-4.22077 -1.99794,-8.06979 -0.59137,-3.59017 -1.20232,-5.95313 -1.5392,-5.95313 -0.32508,0 -0.63939,10.9708 -0.47064,16.42714 0.15312,4.95055 0.43941,7.65611 1.11009,10.49061 0.23288,0.98425 0.47651,2.04659 0.54141,2.36076 0.0744,0.36001 0.56891,0.78952 1.33745,1.16156 0.67071,0.32469 1.68319,1.03146 2.24997,1.57062 0.97151,0.92418 1.03035,1.06972 1.02791,2.54261 -0.003,1.74703 -0.81187,3.80598 -1.88063,4.78638 -0.34668,0.31803 -1.6325,0.94745 -2.85738,1.39872 -1.95592,0.7206 -2.50351,0.81127 -4.49791,0.74469 l -2.27087,-0.0758 -0.2045,-2.24896 c -0.11248,-1.23692 -0.39293,-3.79677 -0.623233,-5.68854 -0.23029,-1.89177 -0.51787,-4.86833 -0.63905,-6.61458 -0.12118,-1.74625 -0.29365,-3.65125 -0.38326,-4.23333 -0.0896,-0.58209 -0.22141,-1.44529 -0.29291,-1.91823 -0.25115,-1.66139 -0.57496,-0.82964 -0.87555,2.24895 -0.49012,5.01978 -2.26059,16.82549 -2.69816,17.99167 -0.1881,0.50133 -0.40192,0.58805 -1.354396,0.54928 -0.622064,-0.0253 -3.036028,-0.12226 -5.364361,-0.21543 z"
       id="path245" /><path
       style="fill:#000000;stroke-width:0.264583"
       d="m 76.810675,99.978344 c 0,-0.21116 0.787122,-0.82411 1.749158,-1.36211 1.528749,-0.85493 1.687113,-1.01295 1.256771,-1.25404 -0.434846,-0.24362 -4.817171,-2.108089 -14.579968,-6.203077 -1.636298,-0.68634 -2.975751,-1.396719 -2.976563,-1.578621 -7.94e-4,-0.181901 0.06097,-0.330729 0.1373,-0.330729 0.129506,0 14.813161,6.158873 16.746578,7.02414 0.482936,0.216127 0.982477,0.328437 1.110091,0.249567 0.127614,-0.07887 -0.05916,-0.917002 -0.415047,-1.862512 -0.758259,-2.014506 -0.809029,-2.572279 -0.223382,-2.454031 0.352248,0.07112 1.698654,3.040612 2.400834,5.295023 0.108173,0.34729 -0.396589,0.71607 -2.263407,1.65364 -2.608882,1.310256 -2.942365,1.403506 -2.942365,0.82275 z"
       id="path683" /><path
       style="fill:#000000;stroke-width:0.264583"
       d="m 114.79091,102.32617 c -1.01175,-0.35335 -1.93149,-0.7344 -2.04385,-0.84676 -0.29664,-0.29664 2.11993,-4.821376 2.57499,-4.821376 0.52491,0 0.48561,0.28065 -0.28251,2.0175 -0.36568,0.82688 -0.61077,1.557526 -0.54464,1.623656 0.12754,0.12754 1.2691,-0.25085 12.98349,-4.303602 10.11449,-3.499255 9.889,-3.427378 10.09782,-3.218556 0.10211,0.102108 0.0745,0.28801 -0.0613,0.413113 -0.13581,0.125103 -3.2235,1.243512 -6.86152,2.485355 -11.22812,3.832734 -15.21354,5.27144 -15.21354,5.49197 0,0.11661 0.41671,0.34955 0.92604,0.51764 0.63121,0.20832 0.92604,0.46756 0.92604,0.81427 0,0.63654 -0.22764,0.62077 -2.50102,-0.17321 z"
       id="path655" /><path
       style="fill:#000000;stroke-width:0.264583"
       d="m 74.785311,107.89141 c -0.191379,-0.49872 -0.266523,-0.43189 1.462214,-1.30043 0.781672,-0.39273 1.317453,-0.80892 1.190625,-0.92487 -0.265858,-0.24307 -10.854042,-3.70181 -20.401394,-6.664336 -0.955871,-0.29661 -1.395278,-0.75624 -0.722955,-0.75624 0.24004,0 3.015271,0.82784 6.167175,1.839636 3.151907,1.01181 7.933397,2.54522 10.625532,3.40758 2.692136,0.86236 4.987433,1.48374 5.100659,1.38084 0.113226,-0.1029 -0.03299,-0.71357 -0.324919,-1.35706 -0.623901,-1.37521 -0.685006,-2.096 -0.177686,-2.096 0.424566,0 2.345137,4.26732 2.053801,4.56334 -0.201641,0.20489 -4.481684,2.31582 -4.695465,2.31582 -0.0665,0 -0.191418,-0.18373 -0.277587,-0.40828 z"
       id="path653" /><path
       style="fill:#000000;stroke-width:0.264583"
       d="m 116.47339,110.61277 c -0.90975,-0.62258 -1.6964,-1.25889 -1.74811,-1.41403 -0.13207,-0.39619 2.00202,-3.01566 2.45687,-3.01566 0.48459,0 0.4781,0.55545 -0.0141,1.2062 -0.51545,0.68148 -0.50095,0.91032 0.0577,0.91115 0.25467,2.6e-4 4.78208,-0.84987 10.06092,-1.88943 8.66128,-1.70567 10.32639,-1.94006 9.76023,-1.37389 -0.0973,0.0973 -2.82584,0.68695 -6.06337,1.31028 -9.804,1.88761 -14.22079,2.82599 -14.22079,3.02131 0,0.10216 0.41591,0.46899 0.92424,0.81517 0.91494,0.62309 1.1555,1.11894 0.68417,1.41025 -0.13403,0.0828 -0.98803,-0.35878 -1.89778,-0.98135 z"
       id="path615" /><path
       style="fill:#000000;stroke-width:0.264583"
       d="m 75.462133,115.94245 c -0.391459,-0.25713 -0.01138,-0.6846 1.768952,-1.98948 0.423619,-0.31049 0.696222,-0.64245 0.605787,-0.73769 -0.09043,-0.0952 -2.23356,-0.60447 -4.7625,-1.13162 -4.29377,-0.89502 -5.285817,-1.19995 -4.960924,-1.52484 0.07207,-0.0721 2.373301,0.34529 5.113848,0.92747 2.740546,0.58218 5.051547,0.98977 5.135557,0.90576 0.08401,-0.084 -0.181689,-0.74769 -0.590439,-1.47484 -0.694888,-1.23617 -0.776581,-2.08826 -0.200207,-2.08826 0.291827,0 2.416262,3.78295 2.40751,4.28702 -0.0098,0.56446 -4.082244,3.11244 -4.517584,2.82648 z"
       id="path597" /><path
       style="fill:#000000;stroke-width:0.264583"
       d="m 113.57356,121.62149 -1.41387,-1.49496 1.30935,-1.15958 c 1.80632,-1.5997 2.20117,-1.80378 2.41448,-1.2479 0.11898,0.31006 -0.10376,0.6707 -0.72983,1.18168 -0.4956,0.40448 -0.83822,0.79829 -0.76138,0.87513 0.12165,0.12165 14.0174,-0.74821 27.18769,-1.70191 3.80157,-0.27529 4.92055,-0.24612 4.52946,0.11808 -0.0606,0.0565 -2.01524,0.24013 -4.34357,0.40815 -2.32834,0.16802 -6.61459,0.47915 -9.525,0.69142 -4.89576,0.35705 -8.96419,0.64378 -15.14923,1.06764 -1.34708,0.0923 -2.50116,0.25186 -2.56462,0.35455 -0.0635,0.10269 0.17548,0.52522 0.531,0.93896 0.35551,0.41374 0.64639,0.91233 0.64639,1.10798 0,0.72031 -0.75284,0.31781 -2.13087,-1.13924 z"
       id="path595" /><path
       style="fill:#000000;stroke-width:0.264583"
       d="m 121.38775,137.66328 c -0.57921,-0.73048 -1.08769,-1.42953 -1.12996,-1.55345 -0.099,-0.29022 3.71661,-2.67465 4.28002,-2.67465 0.7886,0 0.43667,0.77245 -0.62926,1.38116 -0.58096,0.33177 -1.05721,0.69251 -1.05833,0.80165 -10e-4,0.10914 3.39124,0.19844 7.53858,0.19844 6.69571,0 8.03918,0.10522 7.47448,0.58541 -0.0364,0.0309 -3.62579,0.12024 -7.97646,0.19844 l -7.91032,0.14219 0.70042,0.83195 c 0.81559,0.96873 0.88904,1.41701 0.23219,1.41701 -0.25754,0 -0.94214,-0.59767 -1.52136,-1.32815 z"
       id="path503" /><path
       style="fill:#000000;stroke-width:0.264583"
       d="m 71.254425,139.38762 c 0,-0.21866 0.475266,-0.82694 1.056142,-1.35173 0.58088,-0.52479 0.990571,-1.06026 0.910429,-1.18993 -0.08015,-0.12968 -2.765092,-0.23578 -5.96655,-0.23578 -3.813183,0 -5.764435,-0.0913 -5.657313,-0.26458 0.100523,-0.16265 2.281105,-0.26459 5.660059,-0.26459 3.023095,0 5.571358,-0.0748 5.662803,-0.16626 0.09145,-0.0915 -0.256071,-0.68167 -0.772257,-1.31161 -0.842709,-1.02841 -0.990775,-1.69713 -0.37578,-1.69713 0.121946,0 0.975548,0.85028 1.896893,1.88951 l 1.67517,1.8895 -1.714069,1.54573 c -1.736844,1.56626 -2.375527,1.8773 -2.375527,1.15687 z"
       id="path497" /><path
       style="fill:#000000;stroke-width:0.264583"
       d="m 123.55901,150.41841 c -0.82752,-0.83625 -1.49942,-1.69559 -1.49312,-1.90965 0.006,-0.21406 0.72813,-0.86546 1.60406,-1.44754 0.87592,-0.58208 1.80609,-1.21028 2.06704,-1.396 0.39015,-0.27766 0.53104,-0.26949 0.79285,0.046 0.26179,0.31544 0.1058,0.54006 -0.87757,1.26371 -0.65778,0.48404 -1.2006,0.96937 -1.20627,1.07851 -0.006,0.10914 2.96624,0.19844 6.60426,0.19844 4.23334,0 6.61459,0.0953 6.61459,0.26458 0,0.16961 -2.46945,0.26458 -6.87917,0.26458 -3.78354,0 -6.87917,0.077 -6.87917,0.17119 0,0.0941 0.41436,0.67685 0.92079,1.29488 0.72841,0.88894 0.84928,1.18304 0.57854,1.40774 -0.25993,0.21572 -0.70412,-0.0817 -1.84683,-1.23641 z"
       id="path411" /><path
       style="fill:#000000;stroke-width:0.264583"
       d="m 69.273428,152.49065 c -0.202149,-0.32709 0.181449,-1.05447 0.898158,-1.70308 0.987475,-0.89366 0.711314,-1.21281 -1.049444,-1.21281 -1.001368,0 -1.541735,-0.0993 -1.439592,-0.26458 0.08994,-0.14552 0.87087,-0.26458 1.735407,-0.26458 0.864537,0 1.571884,-0.11728 1.571884,-0.26061 0,-0.14334 -0.36581,-0.85513 -0.812913,-1.58176 -0.755333,-1.22758 -0.833025,-1.8618 -0.228071,-1.8618 0.284951,0 2.628484,3.55954 2.628484,3.99235 0,0.34324 -2.63962,3.41598 -2.93448,3.41598 -0.11511,0 -0.281353,-0.1166 -0.369433,-0.25911 z"
       id="path405" /><path
       style="fill:#000000;stroke-width:0.264583"
       d="m 70.032481,160.30415 c -0.08085,-0.2107 0.187431,-0.97803 0.596183,-1.70518 0.40875,-0.72715 0.671235,-1.39404 0.5833,-1.48198 -0.08794,-0.0879 -2.108655,0.36611 -4.490484,1.00898 -2.381827,0.64288 -4.382191,1.12298 -4.445249,1.0669 -0.412504,-0.36684 0.569084,-0.69587 7.45684,-2.49955 0.545703,-0.1429 0.992187,-0.35834 0.992187,-0.47875 0,-0.12041 -0.714375,-0.47941 -1.5875,-0.79777 -1.589056,-0.57939 -1.945688,-0.95873 -1.178229,-1.25323 0.41929,-0.16089 4.793057,1.40256 5.039593,1.80146 0.176567,0.28569 -2.236235,4.7222 -2.568178,4.7222 -0.138303,0 -0.317612,-0.17238 -0.398463,-0.38308 z"
       id="path383" /><path
       style="fill:#000000;stroke-width:0.264583"
       d="m 112.98417,163.92074 c -1.59741,-1.61426 -1.8042,-2.08066 -1.05005,-2.36843 0.25466,-0.0972 1.26396,-0.63794 2.24288,-1.20169 1.64655,-0.94824 2.32118,-1.07466 2.32118,-0.43498 0,0.14052 -0.53578,0.57911 -1.19063,0.97465 -2.03125,1.22692 -2.32507,1.14271 7.12935,2.04345 3.92114,0.37357 7.18543,0.73532 7.25399,0.80387 0.36141,0.36142 -0.46396,0.39674 -3.17822,0.13603 -8.73038,-0.83859 -11.28849,-1.06373 -12.11871,-1.06657 l -0.91359,-0.003 1.01011,1.03445 c 0.94546,0.96824 1.07724,1.61138 0.33016,1.61138 -0.17787,0 -1.00428,-0.68806 -1.83647,-1.52902 z"
       id="path357" /><path
       style="fill:#000000;stroke-width:0.264583"
       d="m 67.021091,172.33865 c 0,-0.14018 2.559572,-1.53916 5.687939,-3.10885 3.128367,-1.5697 5.650338,-2.97306 5.60438,-3.11858 -0.04596,-0.14552 -0.643961,-0.57115 -1.328899,-0.94585 -1.638228,-0.89621 -1.953122,-1.21715 -1.57005,-1.60023 0.219771,-0.21977 0.885129,0.0234 2.555824,0.93411 1.242288,0.67717 2.308654,1.31689 2.369704,1.42159 0.13044,0.22373 -1.610889,4.83617 -1.964746,5.20424 -0.152101,0.1582 -0.352041,0.14096 -0.539538,-0.0465 -0.220792,-0.22079 -0.119105,-0.76049 0.392906,-2.08535 0.379934,-0.98311 0.625944,-1.85232 0.546688,-1.93158 -0.07926,-0.0793 -2.688135,1.133 -5.797503,2.6939 -3.109367,1.5609 -5.721641,2.838 -5.805051,2.838 -0.08341,0 -0.151654,-0.11469 -0.151654,-0.25486 z"
       id="path299" /><path
       style="fill:#000000;stroke-width:0.264583"
       d="m 120.10372,174.30917 c -1.05817,-1.05816 -2.32219,-2.78758 -2.233,-3.05515 0.16622,-0.49866 5.52484,-2.71687 5.82885,-2.41286 0.42477,0.42476 0.0661,0.72981 -1.78138,1.51499 -0.95221,0.4047 -1.68828,0.86485 -1.63571,1.02255 0.0526,0.15771 1.8488,0.72065 3.99162,1.251 2.14282,0.53034 3.9686,1.03681 4.05729,1.12549 0.48051,0.48052 -0.52171,0.35625 -4.14637,-0.51414 -2.20996,-0.53068 -4.07134,-0.91165 -4.13639,-0.8466 -0.065,0.065 0.12151,0.42313 0.41459,0.79572 0.29308,0.37259 0.53288,0.80045 0.53288,0.95081 0,0.4923 -0.47816,0.58242 -0.89238,0.16819 z"
       id="path295" /><path
       style="fill:#ffffff;stroke-width:0.264583;fill-opacity:1"
       d="m 94.381506,177.92395 c 0.290141,-0.46946 2.095101,-12.75979 2.550811,-17.36898 0.15827,-1.60073 0.45814,-3.7686 0.66639,-4.81749 0.20825,-1.04889 0.37863,-2.32881 0.37863,-2.84427 0,-0.65667 0.1188,-0.9372 0.39688,-0.9372 0.21828,0 0.40157,0.0893 0.4073,0.19844 0.0997,1.89618 0.34353,4.17351 0.68712,6.41615 0.23409,1.52797 0.52099,4.14734 0.637543,5.82083 0.11655,1.67349 0.45627,5.24536 0.75492,7.9375 0.29865,2.69214 0.54589,5.10315 0.54942,5.35781 0.006,0.39857 0.27823,0.46302 1.95928,0.46302 1.95625,0 4.67773,-0.77123 6.2046,-1.75831 0.88609,-0.57283 1.89102,-2.89288 1.89411,-4.3729 0.003,-1.50601 -0.73671,-2.36343 -2.99247,-3.46797 -1.14995,-0.56308 -1.53088,-0.89935 -1.64667,-1.45366 -0.0829,-0.39661 -0.25906,-1.19737 -0.39157,-1.77945 -1.19989,-5.27053 -1.41184,-8.63631 -1.22401,-19.43766 0.13636,-7.84195 0.24776,-9.98806 0.53329,-10.27359 0.87554,-0.87554 2.13199,2.16307 2.93142,7.08938 0.61873,3.81282 1.69192,7.79584 2.37423,8.81171 0.46354,0.69016 0.77029,0.8604 1.6689,0.92621 2.60801,0.19101 3.88684,-1.73698 4.15155,-6.25897 0.19253,-3.28881 -0.14298,-5.53158 -1.2329,-8.24145 -0.85777,-2.13269 -4.21421,-7.40138 -5.5422,-8.69974 -0.44705,-0.43707 -1.7756,-1.16434 -2.96017,-1.62044 -1.18201,-0.45512 -2.68204,-1.03074 -3.3334,-1.27917 -1.21669,-0.46404 -2.38758,-1.79308 -2.38758,-2.71006 0,-0.26004 -0.11593,-0.77772 -0.25761,-1.15038 l -0.25761,-0.67757 -1.263753,0.49717 c -0.69506,0.27345 -2.45437,0.70324 -3.90957,0.9551 -2.769045,0.47925 -3.268335,0.41448 -6.019274,-0.78077 -0.419304,-0.18218 -0.463021,8e-5 -0.463021,1.93041 v 2.13157 l -2.182813,1.13222 c -2.461686,1.27686 -4.172553,2.72165 -5.095827,4.30331 -1.330672,2.27958 -2.8232,7.42736 -3.686599,12.71522 -0.237603,1.45521 -0.546534,3.29077 -0.686509,4.07902 -0.619813,3.49038 -0.03221,6.60018 1.328743,7.03213 0.538991,0.17107 1.918272,-0.60464 2.567792,-1.44414 0.509421,-0.65842 1.83175,-3.37895 3.091175,-6.35972 0.645594,-1.52797 1.646814,-3.84968 2.224937,-5.15937 0.578122,-1.30969 1.374169,-3.5227 1.768993,-4.91781 0.845185,-2.98647 1.083501,-3.46429 1.446401,-2.90003 0.135919,0.21133 0.193857,0.47043 0.128754,0.57577 -0.17136,0.27726 -0.872215,15.56887 -1.186191,25.88099 -0.169373,5.56278 -0.375758,8.97744 -0.555712,9.19427 -0.172691,0.20808 -0.877022,0.34596 -1.775227,0.34752 -1.769804,0.003 -3.888635,0.88804 -4.75097,1.98432 -1.110303,1.41152 -0.51622,3.27861 1.367145,4.2967 0.645763,0.34908 1.801929,0.48773 5.069866,0.60799 2.328333,0.0857 4.613259,0.17746 5.077614,0.20397 0.464354,0.0265 0.907084,-0.0534 0.983842,-0.17763 z"
       id="path247" /><path
       style="fill:#000000;stroke-width:0.264583"
       d="m 122.61356,181.42652 c -3.40325,-1.66542 -6.25344,-2.96233 -6.33375,-2.88202 -0.0803,0.0803 0.11679,0.68696 0.438,1.3481 0.58199,1.19792 0.56878,1.69673 -0.0449,1.69673 -0.37882,0 -2.36937,-3.89307 -2.16206,-4.2285 0.27748,-0.44898 4.40276,-1.66402 4.68645,-1.38033 0.40227,0.40227 0.0595,0.76933 -1.04913,1.12357 -0.54368,0.17372 -1.09971,0.41863 -1.23564,0.54425 -0.14403,0.13311 2.36724,1.50416 6.01927,3.28628 3.44653,1.68184 6.26641,3.17202 6.26641,3.31151 0,0.1395 -0.0893,0.24346 -0.19844,0.23104 -0.10914,-0.0124 -2.98292,-1.38522 -6.38618,-3.05063 z"
       id="path213" /><path
       style="fill:#fefefe;stroke-width:0.264583;opacity:0.99999999;fill-opacity:1"
       d="m 96.035837,122.45775 c 3.59922,-0.68399 5.083503,-1.34969 7.302083,-3.27499 2.64776,-2.29775 4.19629,-4.33515 5.0543,-6.64994 1.71344,-4.62261 1.46649,-9.41692 -0.61513,-11.94229 -0.9205,-1.116716 -3.35537,-2.624466 -5.25976,-3.256996 -1.99056,-0.66116 -6.095183,-0.62439 -7.921683,0.071 -3.43539,1.30786 -5.961338,3.741726 -7.864404,7.577726 l -1.186437,2.3915 0.03714,3.04271 c 0.03998,3.27626 0.03838,3.26784 1.259591,6.59001 0.934365,2.54182 1.743027,3.72313 3.215905,4.69783 1.773039,1.17334 2.973123,1.32459 5.978405,0.75348 z"
       id="path249" /><path
       style="fill:#000000;stroke-width:0.865;fill-opacity:1;stroke:#000000;stroke-opacity:1;stroke-dasharray:none"
       d="m 91.817628,108.26338 c -0.993109,-0.74075 -1.513203,-2.09645 -1.513203,-3.94438 0,-1.8391 0.710851,-2.88635 2.287675,-3.3703 1.746496,-0.53601 2.782947,0.61692 3.102127,3.45077 0.20237,1.79673 -0.19972,2.99638 -1.29238,3.85587 -0.906822,0.71331 -1.635635,0.71557 -2.584219,0.008 z"
       id="path257" /><path
       style="fill:#fbfbfb;stroke-width:0.264583;fill-opacity:1"
       d="m 92.817967,103.70269 c 0.291042,-0.0872 0.870199,0.0184 1.287015,0.23486 1.019855,0.5295 1.052225,0.51417 0.867275,-0.41064 -0.41022,-2.05106 -1.846492,-2.66509 -3.324614,-1.42134 -0.691676,0.58201 -0.814051,0.86787 -0.814051,1.90159 v 1.21661 l 0.727604,-0.68124 c 0.400182,-0.37468 0.965729,-0.75261 1.256771,-0.83984 z"
       id="path259" /><path
       style="fill:#000000;stroke-width:0.865;fill-opacity:1;stroke:#000000;stroke-opacity:1;stroke-dasharray:none"
       d="m 99.843387,109.37205 c -1.52955,-1.52954 -1.24596,-6.06612 0.495753,-7.93063 1.02642,-1.09878 1.74148,-1.03743 2.97084,0.2549 1.00117,1.05245 1.01727,1.10194 1.01155,3.10886 -0.007,2.59064 -0.5948,4.01084 -1.91884,4.63913 -1.22099,0.5794 -1.92759,0.55945 -2.559303,-0.0723 z"
       id="path253" /><path
       style="fill:#fbfbfb;stroke-width:0.264583;fill-opacity:1"
       d="m 103.5336,104.48361 c 0,-1.1577 -0.13234,-1.59218 -0.68498,-2.24896 -0.78907,-0.93776 -1.41928,-1.0295 -2.0773,-0.3024 -0.51924,0.57375 -1.222133,2.42396 -1.035553,2.72586 0.0667,0.1079 0.411833,0.006 0.766993,-0.22691 0.87551,-0.57366 1.86447,-0.28282 2.37136,0.6974 0.22466,0.43445 0.46495,0.78991 0.53398,0.78991 0.069,0 0.1255,-0.6457 0.1255,-1.4349 z"
       id="path255" /><path
       style="fill:#000000;stroke-width:0.264583"
       d="m 91.9552,115.65056 c 0.08302,-0.24905 0.899211,-0.33934 3.067627,-0.33934 4.0125,0 3.91861,0.50573 -0.11212,0.60393 -2.403996,0.0586 -3.044121,0.001 -2.955507,-0.26459 z"
       id="path251" /><text
       xml:space="preserve"
       style="font-style:normal;font-variant:normal;font-weight:normal;font-stretch:normal;font-size:4.93889px;line-height:1.25;font-family:sans-serif;-inkscape-font-specification:'sans-serif, @wght=700';font-variant-ligatures:normal;font-variant-caps:normal;font-variant-numeric:normal;font-variant-east-asian:normal;font-variation-settings:'wght' 700;fill:#000000;fill-opacity:1;stroke:none;stroke-width:0.264583"
       x="129.7704"
       y="118.57182"
       id="text1807"
       transform="rotate(-5.3524027)"><tspan
         sodipodi:role="line"
         style="font-style:normal;font-variant:normal;font-weight:normal;font-stretch:normal;font-size:4.93889px;font-family:sans-serif;-inkscape-font-specification:'sans-serif, @wght=700';font-variant-ligatures:normal;font-variant-caps:normal;font-variant-numeric:normal;font-variant-east-asian:normal;font-variation-settings:'wght' 700;stroke-width:0.264583"
         x="129.7704"
         y="118.57182"
         id="tspan1809">k8s services</tspan></text><text
       xml:space="preserve"
       style="font-style:normal;font-variant:normal;font-weight:normal;font-stretch:normal;font-size:4.93889px;line-height:1.25;font-family:sans-serif;-inkscape-font-specification:'sans-serif, @wght=700';font-variant-ligatures:normal;font-variant-caps:normal;font-variant-numeric:normal;font-variant-east-asian:normal;font-variation-settings:'wght' 700;fill:#000000;fill-opacity:1;stroke:none;stroke-width:0.264583"
       x="53.361561"
       y="78.358719"
       id="text1807-2"
       transform="rotate(9.6403771)"><tspan
         sodipodi:role="line"
         style="font-style:normal;font-variant:normal;font-weight:normal;font-stretch:normal;font-size:4.93889px;font-family:sans-serif;-inkscape-font-specification:'sans-serif, @wght=700';font-variant-ligatures:normal;font-variant-caps:normal;font-variant-numeric:normal;font-variant-east-asian:normal;font-variation-settings:'wght' 700;stroke-width:0.264583"
         x="53.361561"
         y="78.358719"
         id="tspan1809-3">frontend</tspan></text><text
       xml:space="preserve"
       style="font-style:normal;font-variant:normal;font-weight:normal;font-stretch:normal;font-size:4.93889px;line-height:1.25;font-family:sans-serif;-inkscape-font-specification:'sans-serif, @wght=700';font-variant-ligatures:normal;font-variant-caps:normal;font-variant-numeric:normal;font-variant-east-asian:normal;font-variation-settings:'wght' 700;fill:#000000;fill-opacity:1;stroke:none;stroke-width:0.264583"
       x="129.57539"
       y="105.7854"
       id="text1807-7"
       transform="rotate(-5.3524027)"><tspan
         sodipodi:role="line"
         style="font-style:normal;font-variant:normal;font-weight:normal;font-stretch:normal;font-size:4.93889px;font-family:sans-serif;-inkscape-font-specification:'sans-serif, @wght=700';font-variant-ligatures:normal;font-variant-caps:normal;font-variant-numeric:normal;font-variant-east-asian:normal;font-variation-settings:'wght' 700;stroke-width:0.264583"
         x="129.57539"
         y="105.7854"
         id="tspan1809-5">backend</tspan></text><text
       xml:space="preserve"
       style="font-style:normal;font-variant:normal;font-weight:normal;font-stretch:normal;font-size:4.93889px;line-height:1.25;font-family:sans-serif;-inkscape-font-specification:'sans-serif, @wght=700';font-variant-ligatures:normal;font-variant-caps:normal;font-variant-numeric:normal;font-variant-east-asian:normal;font-variation-settings:'wght' 700;fill:#000000;fill-opacity:1;stroke:none;stroke-width:0.264583"
       x="133.12959"
       y="185.40439"
       id="text1807-9"
       transform="rotate(0.44497521)"><tspan
         sodipodi:role="line"
         style="font-style:normal;font-variant:normal;font-weight:normal;font-stretch:normal;font-size:4.93889px;font-family:sans-serif;-inkscape-font-specification:'sans-serif, @wght=700';font-variant-ligatures:normal;font-variant-caps:normal;font-variant-numeric:normal;font-variant-east-asian:normal;font-variation-settings:'wght' 700;stroke-width:0.264583"
         x="133.12959"
         y="185.40439"
         id="tspan1809-2">Hardware</tspan></text><text
       xml:space="preserve"
       style="font-style:normal;font-variant:normal;font-weight:normal;font-stretch:normal;font-size:4.93889px;line-height:1.25;font-family:sans-serif;-inkscape-font-specification:'sans-serif, @wght=700';font-variant-ligatures:normal;font-variant-caps:normal;font-variant-numeric:normal;font-variant-east-asian:normal;font-variation-settings:'wght' 700;fill:#000000;fill-opacity:1;stroke:none;stroke-width:0.264583"
       x="132.67984"
       y="175.15298"
       id="text1807-9-9"
       transform="rotate(0.44497521)"><tspan
         sodipodi:role="line"
         style="font-style:normal;font-variant:normal;font-weight:normal;font-stretch:normal;font-size:4.93889px;font-family:sans-serif;-inkscape-font-specification:'sans-serif, @wght=700';font-variant-ligatures:normal;font-variant-caps:normal;font-variant-numeric:normal;font-variant-east-asian:normal;font-variation-settings:'wght' 700;stroke-width:0.264583"
         x="132.67984"
         y="175.15298"
         id="tspan1809-2-3">Authz</tspan></text><text
       xml:space="preserve"
       style="font-style:normal;font-variant:normal;font-weight:normal;font-stretch:normal;font-size:4.93889px;line-height:1.25;font-family:sans-serif;-inkscape-font-specification:'sans-serif, @wght=700';font-variant-ligatures:normal;font-variant-caps:normal;font-variant-numeric:normal;font-variant-east-asian:normal;font-variation-settings:'wght' 700;fill:#000000;fill-opacity:1;stroke:none;stroke-width:0.264583"
       x="133.41861"
       y="164.51624"
       id="text1807-9-19"
       transform="rotate(0.44497521)"><tspan
         sodipodi:role="line"
         style="font-style:normal;font-variant:normal;font-weight:normal;font-stretch:normal;font-size:4.93889px;font-family:sans-serif;-inkscape-font-specification:'sans-serif, @wght=700';font-variant-ligatures:normal;font-variant-caps:normal;font-variant-numeric:normal;font-variant-east-asian:normal;font-variation-settings:'wght' 700;stroke-width:0.264583"
         x="133.41861"
         y="164.51624"
         id="tspan1809-2-4">Monitoring</tspan></text><text
       xml:space="preserve"
       style="font-style:normal;font-variant:normal;font-weight:normal;font-stretch:normal;font-size:4.93889px;line-height:1.25;font-family:sans-serif;-inkscape-font-specification:'sans-serif, @wght=700';font-variant-ligatures:normal;font-variant-caps:normal;font-variant-numeric:normal;font-variant-east-asian:normal;font-variation-settings:'wght' 700;fill:#000000;fill-opacity:1;stroke:none;stroke-width:0.264583"
       x="79.316391"
       y="77.49221"
       id="text1807-9-19-0"
       transform="rotate(0.44497521)"><tspan
         sodipodi:role="line"
         style="font-style:normal;font-variant:normal;font-weight:normal;font-stretch:normal;font-size:4.93889px;font-family:sans-serif;-inkscape-font-specification:'sans-serif, @wght=700';font-variant-ligatures:normal;font-variant-caps:normal;font-variant-numeric:normal;font-variant-east-asian:normal;font-variation-settings:'wght' 700;stroke-width:0.264583"
         x="79.316391"
         y="77.49221"
         id="tspan1809-2-4-3">Skupper Engineer</tspan></text><text
       xml:space="preserve"
       style="font-style:normal;font-variant:normal;font-weight:normal;font-stretch:normal;font-size:4.93889px;line-height:1.25;font-family:sans-serif;-inkscape-font-specification:'sans-serif, @wght=700';font-variant-ligatures:normal;font-variant-caps:normal;font-variant-numeric:normal;font-variant-east-asian:normal;font-variation-settings:'wght' 700;fill:#000000;fill-opacity:1;stroke:none;stroke-width:0.264583"
       x="140.44339"
       y="136.05388"
       id="text1807-9-7"
       transform="rotate(0.44497521)"><tspan
         sodipodi:role="line"
         style="font-style:normal;font-variant:normal;font-weight:normal;font-stretch:normal;font-size:4.93889px;font-family:sans-serif;-inkscape-font-specification:'sans-serif, @wght=700';font-variant-ligatures:normal;font-variant-caps:normal;font-variant-numeric:normal;font-variant-east-asian:normal;font-variation-settings:'wght' 700;stroke-width:0.264583"
         x="140.44339"
         y="136.05388"
         id="tspan1809-2-8">Observability</tspan></text><text
       xml:space="preserve"
       style="font-style:normal;font-variant:normal;font-weight:normal;font-stretch:normal;font-size:4.93889px;line-height:1.25;font-family:sans-serif;-inkscape-font-specification:'sans-serif, @wght=700';font-variant-ligatures:normal;font-variant-caps:normal;font-variant-numeric:normal;font-variant-east-asian:normal;font-variation-settings:'wght' 700;fill:#000000;fill-opacity:1;stroke:none;stroke-width:0.264583"
       x="27.496418"
       y="182.44984"
       id="text1807-9-4"
       transform="rotate(-8.4973605)"><tspan
         sodipodi:role="line"
         style="font-style:normal;font-variant:normal;font-weight:normal;font-stretch:normal;font-size:4.93889px;font-family:sans-serif;-inkscape-font-specification:'sans-serif, @wght=700';font-variant-ligatures:normal;font-variant-caps:normal;font-variant-numeric:normal;font-variant-east-asian:normal;font-variation-settings:'wght' 700;stroke-width:0.264583"
         x="27.496418"
         y="182.44984"
         id="tspan1809-2-5">OSD</tspan></text><text
       xml:space="preserve"
       style="font-style:normal;font-variant:normal;font-weight:normal;font-stretch:normal;font-size:4.93889px;line-height:1.25;font-family:sans-serif;-inkscape-font-specification:'sans-serif, @wght=700';font-variant-ligatures:normal;font-variant-caps:normal;font-variant-numeric:normal;font-variant-east-asian:normal;font-variation-settings:'wght' 700;fill:#000000;fill-opacity:1;stroke:none;stroke-width:0.264583"
       x="26.912317"
       y="161.20032"
       id="text1807-9-1"
       transform="rotate(0.44497521)"><tspan
         sodipodi:role="line"
         style="font-style:normal;font-variant:normal;font-weight:normal;font-stretch:normal;font-size:4.93889px;font-family:sans-serif;-inkscape-font-specification:'sans-serif, @wght=700';font-variant-ligatures:normal;font-variant-caps:normal;font-variant-numeric:normal;font-variant-east-asian:normal;font-variation-settings:'wght' 700;stroke-width:0.264583"
         x="26.912317"
         y="161.20032"
         id="tspan1809-2-2">AWS/GKE/AKS</tspan></text><text
       xml:space="preserve"
       style="font-style:normal;font-variant:normal;font-weight:normal;font-stretch:normal;font-size:4.93889px;line-height:1.25;font-family:sans-serif;-inkscape-font-specification:'sans-serif, @wght=700';font-variant-ligatures:normal;font-variant-caps:normal;font-variant-numeric:normal;font-variant-east-asian:normal;font-variation-settings:'wght' 700;fill:#000000;fill-opacity:1;stroke:none;stroke-width:0.264583"
       x="52.394043"
       y="150.48077"
       id="text1807-9-1-0"
       transform="rotate(0.44497521)"><tspan
         sodipodi:role="line"
         style="font-style:normal;font-variant:normal;font-weight:normal;font-stretch:normal;font-size:4.93889px;font-family:sans-serif;-inkscape-font-specification:'sans-serif, @wght=700';font-variant-ligatures:normal;font-variant-caps:normal;font-variant-numeric:normal;font-variant-east-asian:normal;font-variation-settings:'wght' 700;stroke-width:0.264583"
         x="52.394043"
         y="150.48077"
         id="tspan1809-2-2-6">AI/ML</tspan></text><text
       xml:space="preserve"
       style="font-style:normal;font-variant:normal;font-weight:normal;font-stretch:normal;font-size:4.93889px;line-height:1.25;font-family:sans-serif;-inkscape-font-specification:'sans-serif, @wght=700';font-variant-ligatures:normal;font-variant-caps:normal;font-variant-numeric:normal;font-variant-east-asian:normal;font-variation-settings:'wght' 700;fill:#000000;fill-opacity:1;stroke:none;stroke-width:0.264583"
       x="34.829277"
       y="137.38763"
       id="text1807-9-1-3"
       transform="rotate(0.44497521)"><tspan
         sodipodi:role="line"
         style="font-style:normal;font-variant:normal;font-weight:normal;font-stretch:normal;font-size:4.93889px;font-family:sans-serif;-inkscape-font-specification:'sans-serif, @wght=700';font-variant-ligatures:normal;font-variant-caps:normal;font-variant-numeric:normal;font-variant-east-asian:normal;font-variation-settings:'wght' 700;stroke-width:0.264583"
         x="34.829277"
         y="137.38763"
         id="tspan1809-2-2-2">Versioning</tspan></text><text
       xml:space="preserve"
       style="font-style:normal;font-variant:normal;font-weight:normal;font-stretch:normal;font-size:4.93889px;line-height:1.25;font-family:sans-serif;-inkscape-font-specification:'sans-serif, @wght=700';font-variant-ligatures:normal;font-variant-caps:normal;font-variant-numeric:normal;font-variant-east-asian:normal;font-variation-settings:'wght' 700;fill:#000000;fill-opacity:1;stroke:none;stroke-width:0.264583"
       x="139.1707"
       y="149.27849"
       id="text1807-9-1-06"
       transform="rotate(0.44497521)"><tspan
         sodipodi:role="line"
         style="font-style:normal;font-variant:normal;font-weight:normal;font-stretch:normal;font-size:4.93889px;font-family:sans-serif;-inkscape-font-specification:'sans-serif, @wght=700';font-variant-ligatures:normal;font-variant-caps:normal;font-variant-numeric:normal;font-variant-east-asian:normal;font-variation-settings:'wght' 700;stroke-width:0.264583"
         x="139.1707"
         y="149.27849"
         id="tspan1809-2-2-1">Devops</tspan></text><text
       xml:space="preserve"
       style="font-style:normal;font-variant:normal;font-weight:normal;font-stretch:normal;font-size:4.93889px;line-height:1.25;font-family:sans-serif;-inkscape-font-specification:'sans-serif, @wght=700';font-variant-ligatures:normal;font-variant-caps:normal;font-variant-numeric:normal;font-variant-east-asian:normal;font-variation-settings:'wght' 700;fill:#000000;fill-opacity:1;stroke:none;stroke-width:0.264583"
       x="22.92639"
       y="95.88356"
       id="text1807-28"
       transform="rotate(3.1853553)"><tspan
         sodipodi:role="line"
         style="font-style:normal;font-variant:normal;font-weight:normal;font-stretch:normal;font-size:4.93889px;font-family:sans-serif;-inkscape-font-specification:'sans-serif, @wght=700';font-variant-ligatures:normal;font-variant-caps:normal;font-variant-numeric:normal;font-variant-east-asian:normal;font-variation-settings:'wght' 700;stroke-width:0.264583"
         x="22.92639"
         y="95.88356"
         id="tspan1809-9">&quot;local&quot; services</tspan></text><text
       xml:space="preserve"
       style="font-style:normal;font-variant:normal;font-weight:normal;font-stretch:normal;font-size:4.93889px;line-height:1.25;font-family:sans-serif;-inkscape-font-specification:'sans-serif, @wght=700';font-variant-ligatures:normal;font-variant-caps:normal;font-variant-numeric:normal;font-variant-east-asian:normal;font-variation-settings:'wght' 700;fill:#000000;fill-opacity:1;stroke:none;stroke-width:0.264583"
       x="137.06064"
       y="132.86511"
       id="text1807-73"
       transform="rotate(-5.3524027)"><tspan
         sodipodi:role="line"
         style="font-style:normal;font-variant:normal;font-weight:normal;font-stretch:normal;font-size:4.93889px;font-family:sans-serif;-inkscape-font-specification:'sans-serif, @wght=700';font-variant-ligatures:normal;font-variant-caps:normal;font-variant-numeric:normal;font-variant-east-asian:normal;font-variation-settings:'wght' 700;stroke-width:0.264583"
         x="137.06064"
         y="132.86511"
         id="tspan1809-6">microservices</tspan></text><text
       xml:space="preserve"
       style="font-style:normal;font-variant:normal;font-weight:normal;font-stretch:normal;font-size:4.93889px;line-height:1.25;font-family:sans-serif;-inkscape-font-specification:'sans-serif, @wght=700';font-variant-ligatures:normal;font-variant-caps:normal;font-variant-numeric:normal;font-variant-east-asian:normal;font-variation-settings:'wght' 700;fill:#000000;fill-opacity:1;stroke:none;stroke-width:0.264583"
       x="36.403038"
       y="108.16905"
       id="text1807-73-6"
       transform="rotate(2.8472879)"
       inkscape:export-filename="skupper-eng.png"
       inkscape:export-xdpi="96"
       inkscape:export-ydpi="96"><tspan
         sodipodi:role="line"
         style="font-style:normal;font-variant:normal;font-weight:normal;font-stretch:normal;font-size:4.93889px;font-family:sans-serif;-inkscape-font-specification:'sans-serif, @wght=700';font-variant-ligatures:normal;font-variant-caps:normal;font-variant-numeric:normal;font-variant-east-asian:normal;font-variation-settings:'wght' 700;stroke-width:0.264583"
         x="36.403038"
         y="108.16905"
         id="tspan1809-6-1">microservices</tspan></text></g></svg>
